<svg xmlns="http://www.w3.org/2000/svg" width="31" height="31" viewBox="0 0 31 31"><g fill="none" fill-rule="evenodd"><g><g><g><g transform="translate(-646.000000, -1935.000000) translate(123.000000, 1450.000000) translate(523.801297, 486.992396) translate(0.792453, 0.007604)"><path fill="#FFF" d="M18.7 4.359v2.978h-.378c-.612 0-1.224-.003-1.835 0-.858.006-1.308.392-1.368 1.243-.04.581-.008 1.168-.008 1.775h3.427c-.048.325-.09.624-.137.923-.1.636-.208 1.27-.3 1.908-.02.135-.07.168-.197.167-.84-.005-1.68-.003-2.519-.004h-.289v9.008h-2.96v-9.005h-1.832v-.876c0-.631.006-1.263-.004-1.894-.003-.176.042-.236.226-.23.462.013.924.004 1.386.004h.21c.006-.101.014-.183.014-.265.007-.729-.001-1.458.022-2.186.018-.574.114-1.139.32-1.68.41-1.089 1.215-1.676 2.35-1.82.385-.048.779-.041 1.168-.044.833-.006 1.666-.002 2.5-.002h.204z"/><circle cx="14" cy="14" r="14" stroke="#FFF"/></g></g></g></g></g></svg>