<svg xmlns="http://www.w3.org/2000/svg" width="31" height="31" viewBox="0 0 31 31"><g fill="none" fill-rule="evenodd"><g><g><g><g transform="translate(-684.000000, -1935.000000) translate(123.000000, 1450.000000) translate(561.801297, 486.992396) translate(0.792453, 0.007604)"><g fill="#FFF"><g><path d="M1.343 7.387h-.02c.019.962.033 1.924.057 2.885.006.26.02.521.07.775.063.327.126.662.256.966.349.813.975 1.314 1.849 1.477.656.122 1.322.185 1.99.181 1.591-.009 3.184.05 4.775-.038.275-.016.551-.047.825-.085.342-.047.674-.13.986-.291.787-.405 1.23-1.05 1.374-1.912.109-.653.146-1.313.155-1.973.015-1.17.012-2.342.005-3.513-.005-.697-.021-1.394-.137-2.086-.106-.626-.361-1.168-.81-1.61-.377-.369-.85-.566-1.367-.65-.718-.118-1.443-.153-2.168-.162-1.05-.012-2.102-.008-3.153-.002-.755.004-1.51.014-2.26.138-.575.094-1.08.322-1.51.706-.428.383-.654.886-.751 1.445-.115.659-.147 1.326-.163 1.992-.014.586-.003 1.171-.003 1.757M.03 7.492c0-.907-.008-1.814.003-2.72.006-.597.067-1.19.235-1.765C.693 1.55 1.668.66 3.111.256 3.776.069 4.459.038 5.144.032 6.08.024 7.018.022 7.955.025c.858.003 1.716.004 2.574.03.781.025 1.543.163 2.25.522.842.429 1.411 1.106 1.777 1.965.286.67.397 1.376.407 2.1.013.947.025 1.895.028 2.842.003.872 0 1.744-.013 2.616-.008.627-.058 1.25-.223 1.86-.357 1.316-1.194 2.193-2.457 2.677-.6.23-1.228.318-1.867.338-.438.013-.876.025-1.314.025-1.402 0-2.805 0-4.208-.012-.71-.007-1.414-.07-2.094-.297-1.199-.4-2-1.208-2.441-2.384-.235-.628-.324-1.284-.337-1.95C.019 9.402.012 8.447 0 7.492h.03" transform="translate(7.000000, 5.464912) translate(0.000000, 0.535088)"/></g><path d="M6 7.546c-.029 1.135.974 1.966 1.945 1.989 1.14.026 2.048-.906 2.055-1.94.008-1.171-.864-2.06-2.009-2.06-1.106 0-1.99.892-1.99 2.01m4.998-.007c.03 1.57-1.294 3.03-3.05 2.997-1.601-.03-2.918-1.341-2.948-2.935C4.969 5.98 6.284 4.54 8.008 4.535c1.724-.006 3.028 1.447 2.991 3.003M12 4.035c-.002.269-.241.504-.509.5-.26-.004-.493-.244-.491-.507.002-.261.246-.496.512-.493.252.003.49.247.488.5" transform="translate(7.000000, 5.464912)"/></g><circle cx="14" cy="14" r="14" stroke="#FFF"/></g></g></g></g></g></svg>