<svg xmlns="http://www.w3.org/2000/svg" width="31" height="31" viewBox="0 0 31 31"><g fill="none" fill-rule="evenodd"><g><g><g><g transform="translate(-379.000000, -1887.000000) translate(123.000000, 1450.000000) translate(256.801297, 438.992396) translate(0.792453, 0.007604)"><path fill="#FFF" d="M19.251 9.107c.016-1.217-.966-2.255-2.162-2.26-1.228-.004-2.206.995-2.208 2.245-.003 1.248.936 2.187 2.057 2.252 1.292.075 2.315-.984 2.313-2.237zm-8.055 4.462c.008-1.233-.938-2.183-2.038-2.253-1.276-.081-2.316.931-2.332 2.216-.017 1.238.929 2.257 2.16 2.277 1.198.019 2.208-.975 2.21-2.24zm4.605 5.348c.005 1.244.995 2.253 2.202 2.243 1.193-.009 2.19-1.042 2.17-2.266-.02-1.292-1.043-2.255-2.245-2.236-1.16.02-2.132 1.038-2.127 2.26zM17.269 6c.268.062.548.094.804.192 1.103.421 1.772 1.239 1.961 2.432.281 1.77-.946 3.328-2.553 3.537-1.12.145-2.045-.242-2.76-1.14-.1-.127-.168-.152-.318-.082-.877.404-1.761.793-2.643 1.188-.017.007-.034.018-.06.033.432.948.432 1.892-.02 2.84l3.804 2.165c.108-.131.205-.264.317-.383.668-.712 1.493-1.04 2.445-.958.893.076 1.63.498 2.158 1.25 1.013 1.44.705 3.33-.698 4.377-1.063.792-2.65.718-3.648-.161-.536-.474-.887-1.062-1.026-1.77-.096-.488-.085-.982.062-1.464.023-.075.033-.127-.055-.177-1.28-.724-2.558-1.453-3.799-2.16-.329.222-.622.469-.953.632-.94.464-1.88.412-2.782-.115-.785-.459-1.277-1.164-1.443-2.072-.2-1.082.083-2.037.852-2.818.661-.671 1.473-.95 2.39-.869.682.06 1.282.348 1.777.843.095.095.16.12.293.06.937-.43 1.88-.847 2.834-1.274-.016-.072-.028-.14-.046-.208-.447-1.651.546-3.364 2.121-3.783.184-.05.373-.077.56-.115h.426z"/><circle cx="14" cy="14" r="14" stroke="#FFF"/></g></g></g></g></g></svg>